<svg width="49" height="43" viewBox="0 0 49 43" fill="none" xmlns="http://www.w3.org/2000/svg">
<path d="M0.707962 8.59045C0.511137 8.65867 0.344992 8.79467 0.239227 8.97414C0.133462 9.1536 0.0949722 9.36483 0.130639 9.57007C0.229907 9.98935 0.684451 10.1461 0.707962 10.1539H1.70718C1.79494 10.1539 1.87913 10.1887 1.94131 10.2506C2.00349 10.3126 2.03859 10.3966 2.03894 10.4844V15.3799C2.03859 15.4676 2.00349 15.5517 1.94131 15.6136C1.87913 15.6756 1.79494 15.7103 1.70718 15.7103H0.996624C0.875668 15.6987 0.754439 15.7296 0.6538 15.7977C0.55316 15.8658 0.479405 15.9668 0.445227 16.0834C0.411048 16.2001 0.418585 16.3249 0.466538 16.4366C0.514492 16.5482 0.599864 16.6397 0.707962 16.6952L6.43809 18.8373C6.56961 18.8586 6.70446 18.8431 6.82776 18.7926C6.95106 18.7422 7.05803 18.6586 7.13689 18.5512C7.32759 18.2495 7.20611 17.7519 6.77769 17.5063L4.64343 16.2328V14.719C4.64342 14.6669 4.65377 14.6155 4.67387 14.5675C4.69396 14.5195 4.72341 14.476 4.76049 14.4395C4.79758 14.4031 4.84155 14.3743 4.88984 14.355C4.93814 14.3357 4.9898 14.3262 5.0418 14.3271H19.6094C19.6967 14.3269 19.7831 14.344 19.8637 14.3772C19.9444 14.4105 20.0177 14.4594 20.0794 14.521C20.1412 14.5826 20.1902 14.6558 20.2236 14.7364C20.257 14.817 20.2743 14.9034 20.2743 14.9906V34.0319C20.2737 34.062 20.265 34.0915 20.2493 34.1172C20.2335 34.143 20.2112 34.164 20.1846 34.1783C20.158 34.1925 20.1281 34.1994 20.0979 34.1982C20.0677 34.1971 20.0384 34.1879 20.013 34.1716L15.6269 31.1792C15.451 31.0579 15.2409 30.9961 15.0274 31.0029L13.6625 31.042C13.6328 31.0435 13.6041 31.053 13.5796 31.0696C13.555 31.0862 13.5354 31.1092 13.523 31.1361C13.5106 31.1631 13.5058 31.1929 13.5092 31.2224C13.5126 31.2519 13.5241 31.2799 13.5423 31.3033L22.3145 41.8179C22.4194 41.9436 22.5506 42.0448 22.6989 42.1143C22.8471 42.1838 23.0089 42.22 23.1726 42.2202H24.0739C24.2183 42.2202 24.3569 42.1628 24.459 42.0606C24.5612 41.9585 24.6185 41.82 24.6185 41.6755V4.65107C24.6185 4.49482 24.5757 4.34157 24.4949 4.20783C24.4141 4.0741 24.2983 3.96496 24.1601 3.89219L16.8064 0.032482C16.7817 0.0193996 16.754 0.0129418 16.726 0.0137374C16.6981 0.0145331 16.6708 0.0225552 16.6469 0.0370224C16.6229 0.0514897 16.6031 0.071909 16.5894 0.0962921C16.5757 0.120675 16.5686 0.148191 16.5687 0.17616V1.43138C16.5706 1.49476 16.5941 1.55559 16.6353 1.60379L19.966 5.78351C20.1308 5.9912 20.2206 6.24851 20.2207 6.51365V11.6874C20.2209 11.7746 20.2038 11.861 20.1706 11.9417C20.1373 12.0223 20.0885 12.0956 20.0268 12.1574C19.9652 12.2191 19.892 12.2681 19.8114 12.3016C19.7308 12.335 19.6444 12.3522 19.5572 12.3522H5.0418C4.9898 12.3531 4.93814 12.3436 4.88984 12.3243C4.84155 12.305 4.79758 12.2762 4.76049 12.2398C4.72341 12.2033 4.69396 12.1598 4.67387 12.1118C4.65377 12.0638 4.64342 12.0124 4.64343 11.9603V9.76861C4.6441 9.53093 4.73462 9.30231 4.89682 9.12859C5.47284 8.51208 5.94175 8.03533 6.26437 7.70357C6.58699 7.3718 6.96709 6.99954 6.86521 6.78925C6.80251 6.65864 6.58699 6.62729 6.41458 6.62206L0.707962 8.59045Z" fill="#F0EBEB"/>
<path d="M26.602 3.81741C26.3944 3.91841 26.2193 4.07564 26.0967 4.27123C25.9741 4.46681 25.9089 4.69289 25.9084 4.92373L25.8979 41.6086C25.8979 41.7717 25.9628 41.9282 26.0781 42.0436C26.1935 42.159 26.35 42.2238 26.5132 42.2238H27.9983C28.143 42.2237 28.2861 42.1937 28.4187 42.1357C28.5513 42.0777 28.6705 41.993 28.7689 41.8868L48.8367 20.1013C48.9295 20.0009 48.9862 19.8724 48.9977 19.7361C49.0093 19.5999 48.9752 19.4637 48.9008 19.349L46.2323 15.245C46.1736 15.1548 46.0923 15.0816 45.9965 15.0326C45.9007 14.9836 45.7938 14.9607 45.6863 14.9659C45.5788 14.9712 45.4746 15.0046 45.3841 15.0627C45.2936 15.1209 45.2199 15.2017 45.1704 15.2973C45.1067 15.4202 45.0864 15.5611 45.1129 15.6969L45.8587 19.5776C45.8763 19.6699 45.8723 19.7651 45.8472 19.8557C45.822 19.9463 45.7764 20.0299 45.7137 20.1L31.1566 36.4727C31.0737 36.566 30.9644 36.6318 30.8432 36.6615C30.722 36.6912 30.5947 36.6834 30.4781 36.639C30.3615 36.5947 30.2611 36.5159 30.1903 36.4132C30.1195 36.3105 30.0816 36.1887 30.0816 36.0639C30.0816 26.2242 30.0864 16.387 30.096 6.55252C31.4944 4.89804 32.8929 3.24096 34.2913 1.58127C34.3764 1.48074 34.4308 1.35787 34.4481 1.2273C34.4964 0.864184 34.5434 0.502377 34.5918 0.140571C34.5935 0.11831 34.5894 0.0959839 34.58 0.0757249C34.5707 0.055466 34.5562 0.0379502 34.5382 0.0248498C34.5201 0.0117493 34.4989 0.00350162 34.4768 0.000893999C34.4546 -0.00171362 34.4321 0.00140591 34.4115 0.00995478L26.602 3.81741Z" fill="#F0EBEB"/>
</svg>
