<svg width="671" height="112" viewBox="0 0 671 112" fill="none" xmlns="http://www.w3.org/2000/svg">
<path d="M169.06 92.1C169.613 92.1 170.1 92.0267 170.52 91.88C170.947 91.7333 171.303 91.53 171.59 91.27C171.883 91.0033 172.103 90.6867 172.25 90.32C172.397 89.9533 172.47 89.55 172.47 89.11C172.47 88.1967 172.187 87.4833 171.62 86.97C171.06 86.4567 170.207 86.2 169.06 86.2H166.76V92.1H169.06ZM169.06 84.67C169.967 84.67 170.753 84.7767 171.42 84.99C172.093 85.1967 172.65 85.4933 173.09 85.88C173.53 86.2667 173.857 86.7333 174.07 87.28C174.29 87.8267 174.4 88.4367 174.4 89.11C174.4 89.7767 174.283 90.3867 174.05 90.94C173.817 91.4933 173.473 91.97 173.02 92.37C172.573 92.77 172.017 93.0833 171.35 93.31C170.69 93.53 169.927 93.64 169.06 93.64H166.76V99H164.83V84.67H169.06ZM183.412 91.61C183.972 91.61 184.465 91.5433 184.892 91.41C185.325 91.27 185.685 91.0767 185.972 90.83C186.265 90.5767 186.485 90.2767 186.632 89.93C186.778 89.5833 186.852 89.2 186.852 88.78C186.852 87.9267 186.572 87.2833 186.012 86.85C185.452 86.4167 184.612 86.2 183.492 86.2H181.372V91.61H183.412ZM190.032 99H188.312C187.958 99 187.698 98.8633 187.532 98.59L183.812 93.47C183.698 93.31 183.575 93.1967 183.442 93.13C183.315 93.0567 183.115 93.02 182.842 93.02H181.372V99H179.442V84.67H183.492C184.398 84.67 185.182 84.7633 185.842 84.95C186.502 85.13 187.045 85.3933 187.472 85.74C187.905 86.0867 188.225 86.5067 188.432 87C188.638 87.4867 188.742 88.0333 188.742 88.64C188.742 89.1467 188.662 89.62 188.502 90.06C188.342 90.5 188.108 90.8967 187.802 91.25C187.502 91.5967 187.132 91.8933 186.692 92.14C186.258 92.3867 185.765 92.5733 185.212 92.7C185.458 92.84 185.672 93.0433 185.852 93.31L190.032 99ZM207.684 91.84C207.684 92.9133 207.514 93.9 207.174 94.8C206.834 95.6933 206.354 96.4633 205.734 97.11C205.114 97.7567 204.367 98.26 203.494 98.62C202.627 98.9733 201.667 99.15 200.614 99.15C199.561 99.15 198.601 98.9733 197.734 98.62C196.867 98.26 196.124 97.7567 195.504 97.11C194.884 96.4633 194.404 95.6933 194.064 94.8C193.724 93.9 193.554 92.9133 193.554 91.84C193.554 90.7667 193.724 89.7833 194.064 88.89C194.404 87.99 194.884 87.2167 195.504 86.57C196.124 85.9167 196.867 85.41 197.734 85.05C198.601 84.69 199.561 84.51 200.614 84.51C201.667 84.51 202.627 84.69 203.494 85.05C204.367 85.41 205.114 85.9167 205.734 86.57C206.354 87.2167 206.834 87.99 207.174 88.89C207.514 89.7833 207.684 90.7667 207.684 91.84ZM205.694 91.84C205.694 90.96 205.574 90.17 205.334 89.47C205.094 88.77 204.754 88.18 204.314 87.7C203.874 87.2133 203.341 86.84 202.714 86.58C202.087 86.32 201.387 86.19 200.614 86.19C199.847 86.19 199.151 86.32 198.524 86.58C197.897 86.84 197.361 87.2133 196.914 87.7C196.474 88.18 196.134 88.77 195.894 89.47C195.654 90.17 195.534 90.96 195.534 91.84C195.534 92.72 195.654 93.51 195.894 94.21C196.134 94.9033 196.474 95.4933 196.914 95.98C197.361 96.46 197.897 96.83 198.524 97.09C199.151 97.3433 199.847 97.47 200.614 97.47C201.387 97.47 202.087 97.3433 202.714 97.09C203.341 96.83 203.874 96.46 204.314 95.98C204.754 95.4933 205.094 94.9033 205.334 94.21C205.574 93.51 205.694 92.72 205.694 91.84ZM222.105 86.3H217.465V99H215.535V86.3H210.885V84.67H222.105V86.3ZM235.672 97.42L235.662 99H226.832V84.67H235.662V86.25H228.772V91.01H234.352V92.53H228.772V97.42H235.672ZM250.722 96.04C250.829 96.04 250.922 96.0833 251.002 96.17L251.772 97C251.185 97.68 250.472 98.21 249.632 98.59C248.799 98.97 247.789 99.16 246.602 99.16C245.575 99.16 244.642 98.9833 243.802 98.63C242.962 98.27 242.245 97.77 241.652 97.13C241.059 96.4833 240.599 95.71 240.272 94.81C239.945 93.91 239.782 92.92 239.782 91.84C239.782 90.76 239.952 89.77 240.292 88.87C240.632 87.97 241.109 87.1967 241.722 86.55C242.342 85.9033 243.082 85.4033 243.942 85.05C244.802 84.69 245.752 84.51 246.792 84.51C247.812 84.51 248.712 84.6733 249.492 85C250.272 85.3267 250.959 85.77 251.552 86.33L250.912 87.22C250.872 87.2867 250.819 87.3433 250.752 87.39C250.692 87.43 250.609 87.45 250.502 87.45C250.382 87.45 250.235 87.3867 250.062 87.26C249.889 87.1267 249.662 86.98 249.382 86.82C249.102 86.66 248.752 86.5167 248.332 86.39C247.912 86.2567 247.395 86.19 246.782 86.19C246.042 86.19 245.365 86.32 244.752 86.58C244.139 86.8333 243.609 87.2033 243.162 87.69C242.722 88.1767 242.379 88.77 242.132 89.47C241.885 90.17 241.762 90.96 241.762 91.84C241.762 92.7333 241.889 93.53 242.142 94.23C242.402 94.93 242.752 95.5233 243.192 96.01C243.639 96.49 244.162 96.8567 244.762 97.11C245.369 97.3633 246.022 97.49 246.722 97.49C247.149 97.49 247.532 97.4667 247.872 97.42C248.219 97.3667 248.535 97.2867 248.822 97.18C249.115 97.0733 249.385 96.94 249.632 96.78C249.885 96.6133 250.135 96.4167 250.382 96.19C250.495 96.09 250.609 96.04 250.722 96.04ZM266.311 86.3H261.671V99H259.741V86.3H255.091V84.67H266.311V86.3ZM272.978 99H271.038V84.67H272.978V99ZM290.853 84.67V99H289.883C289.73 99 289.6 98.9733 289.493 98.92C289.393 98.8667 289.293 98.7767 289.193 98.65L280.903 87.85C280.917 88.0167 280.927 88.18 280.933 88.34C280.94 88.5 280.943 88.65 280.943 88.79V99H279.243V84.67H280.243C280.33 84.67 280.403 84.6767 280.463 84.69C280.523 84.6967 280.577 84.7133 280.623 84.74C280.67 84.76 280.717 84.7933 280.763 84.84C280.81 84.88 280.86 84.9333 280.913 85L289.203 95.79C289.19 95.6167 289.177 95.45 289.163 95.29C289.157 95.1233 289.153 94.9667 289.153 94.82V84.67H290.853ZM308.757 92.11V97.61C308.037 98.13 307.267 98.52 306.447 98.78C305.633 99.0333 304.74 99.16 303.767 99.16C302.613 99.16 301.573 98.9833 300.647 98.63C299.72 98.27 298.927 97.77 298.267 97.13C297.613 96.4833 297.11 95.71 296.757 94.81C296.403 93.91 296.227 92.92 296.227 91.84C296.227 90.7467 296.397 89.75 296.737 88.85C297.083 87.95 297.573 87.18 298.207 86.54C298.84 85.8933 299.61 85.3933 300.517 85.04C301.423 84.6867 302.437 84.51 303.557 84.51C304.123 84.51 304.65 84.5533 305.137 84.64C305.623 84.72 306.073 84.84 306.487 85C306.9 85.1533 307.283 85.3433 307.637 85.57C307.99 85.79 308.32 86.04 308.627 86.32L308.077 87.2C307.99 87.3333 307.877 87.42 307.737 87.46C307.603 87.4933 307.453 87.46 307.287 87.36C307.127 87.2667 306.943 87.1533 306.737 87.02C306.53 86.8867 306.277 86.76 305.977 86.64C305.683 86.5133 305.333 86.4067 304.927 86.32C304.527 86.2333 304.05 86.19 303.497 86.19C302.69 86.19 301.96 86.3233 301.307 86.59C300.653 86.85 300.097 87.2267 299.637 87.72C299.177 88.2067 298.823 88.8 298.577 89.5C298.33 90.1933 298.207 90.9733 298.207 91.84C298.207 92.74 298.333 93.5467 298.587 94.26C298.847 94.9667 299.213 95.57 299.687 96.07C300.167 96.5633 300.747 96.94 301.427 97.2C302.107 97.46 302.87 97.59 303.717 97.59C304.383 97.59 304.973 97.5167 305.487 97.37C306.007 97.2167 306.513 97.0067 307.007 96.74V93.59H304.777C304.65 93.59 304.547 93.5533 304.467 93.48C304.393 93.4067 304.357 93.3167 304.357 93.21V92.11H308.757ZM340.34 84.67L335.87 99H334.13L330.5 88.07C330.467 87.9633 330.433 87.85 330.4 87.73C330.373 87.61 330.343 87.4833 330.31 87.35C330.277 87.4833 330.243 87.61 330.21 87.73C330.177 87.85 330.143 87.9633 330.11 88.07L326.46 99H324.72L320.25 84.67H321.86C322.033 84.67 322.177 84.7133 322.29 84.8C322.41 84.8867 322.487 84.9967 322.52 85.13L325.48 95.09C325.527 95.27 325.57 95.4633 325.61 95.67C325.657 95.8767 325.7 96.0967 325.74 96.33C325.787 96.0967 325.833 95.8767 325.88 95.67C325.933 95.4567 325.99 95.2633 326.05 95.09L329.42 85.13C329.46 85.0167 329.537 84.9133 329.65 84.82C329.77 84.72 329.913 84.67 330.08 84.67H330.64C330.813 84.67 330.953 84.7133 331.06 84.8C331.167 84.8867 331.247 84.9967 331.3 85.13L334.66 95.09C334.72 95.2633 334.773 95.45 334.82 95.65C334.873 95.85 334.923 96.06 334.97 96.28C335.003 96.06 335.04 95.85 335.08 95.65C335.12 95.45 335.163 95.2633 335.21 95.09L338.18 85.13C338.213 85.01 338.287 84.9033 338.4 84.81C338.52 84.7167 338.663 84.67 338.83 84.67H340.34ZM356.683 84.67V99H354.743V92.48H347.013V99H345.073V84.67H347.013V91.06H354.743V84.67H356.683ZM370.556 93.68L368.306 87.85C368.24 87.6767 368.17 87.4767 368.096 87.25C368.023 87.0167 367.953 86.77 367.886 86.51C367.746 87.05 367.603 87.5 367.456 87.86L365.206 93.68H370.556ZM374.596 99H373.096C372.923 99 372.783 98.9567 372.676 98.87C372.57 98.7833 372.49 98.6733 372.436 98.54L371.096 95.08H364.666L363.326 98.54C363.286 98.66 363.21 98.7667 363.096 98.86C362.983 98.9533 362.843 99 362.676 99H361.176L366.906 84.67H368.866L374.596 99ZM387.365 86.3H382.725V99H380.795V86.3H376.145V84.67H387.365V86.3ZM414.113 84.67V99H412.413V88.47C412.413 88.33 412.417 88.18 412.423 88.02C412.437 87.86 412.45 87.6967 412.463 87.53L407.543 96.49C407.39 96.79 407.157 96.94 406.843 96.94H406.563C406.25 96.94 406.017 96.79 405.863 96.49L400.843 87.49C400.883 87.8433 400.903 88.17 400.903 88.47V99H399.203V84.67H400.633C400.807 84.67 400.94 84.6867 401.033 84.72C401.127 84.7533 401.217 84.8467 401.303 85L406.253 93.82C406.333 93.98 406.41 94.1467 406.483 94.32C406.563 94.4933 406.637 94.67 406.703 94.85C406.77 94.67 406.84 94.4933 406.913 94.32C406.987 94.14 407.067 93.97 407.153 93.81L412.013 85C412.093 84.8467 412.18 84.7533 412.273 84.72C412.373 84.6867 412.51 84.67 412.683 84.67H414.113ZM427.988 93.68L425.738 87.85C425.671 87.6767 425.601 87.4767 425.528 87.25C425.454 87.0167 425.384 86.77 425.318 86.51C425.178 87.05 425.034 87.5 424.888 87.86L422.638 93.68H427.988ZM432.028 99H430.528C430.354 99 430.214 98.9567 430.108 98.87C430.001 98.7833 429.921 98.6733 429.868 98.54L428.528 95.08H422.098L420.758 98.54C420.718 98.66 420.641 98.7667 420.528 98.86C420.414 98.9533 420.274 99 420.108 99H418.608L424.338 84.67H426.298L432.028 99ZM444.797 86.3H440.157V99H438.227V86.3H433.577V84.67H444.797V86.3ZM459.213 86.3H454.573V99H452.643V86.3H447.993V84.67H459.213V86.3ZM472.779 97.42L472.769 99H463.939V84.67H472.769V86.25H465.879V91.01H471.459V92.53H465.879V97.42H472.779ZM482.052 91.61C482.612 91.61 483.106 91.5433 483.532 91.41C483.966 91.27 484.326 91.0767 484.612 90.83C484.906 90.5767 485.126 90.2767 485.272 89.93C485.419 89.5833 485.492 89.2 485.492 88.78C485.492 87.9267 485.212 87.2833 484.652 86.85C484.092 86.4167 483.252 86.2 482.132 86.2H480.012V91.61H482.052ZM488.672 99H486.952C486.599 99 486.339 98.8633 486.172 98.59L482.452 93.47C482.339 93.31 482.216 93.1967 482.082 93.13C481.956 93.0567 481.756 93.02 481.482 93.02H480.012V99H478.082V84.67H482.132C483.039 84.67 483.822 84.7633 484.482 84.95C485.142 85.13 485.686 85.3933 486.112 85.74C486.546 86.0867 486.866 86.5067 487.072 87C487.279 87.4867 487.382 88.0333 487.382 88.64C487.382 89.1467 487.302 89.62 487.142 90.06C486.982 90.5 486.749 90.8967 486.442 91.25C486.142 91.5967 485.772 91.8933 485.332 92.14C484.899 92.3867 484.406 92.5733 483.852 92.7C484.099 92.84 484.312 93.0433 484.492 93.31L488.672 99ZM500.551 86.91C500.491 87.01 500.425 87.0867 500.351 87.14C500.285 87.1867 500.201 87.21 500.101 87.21C499.988 87.21 499.855 87.1533 499.701 87.04C499.548 86.9267 499.355 86.8033 499.121 86.67C498.895 86.53 498.618 86.4033 498.291 86.29C497.971 86.1767 497.581 86.12 497.121 86.12C496.688 86.12 496.305 86.18 495.971 86.3C495.645 86.4133 495.368 86.57 495.141 86.77C494.921 86.97 494.755 87.2067 494.641 87.48C494.528 87.7467 494.471 88.0367 494.471 88.35C494.471 88.75 494.568 89.0833 494.761 89.35C494.961 89.61 495.221 89.8333 495.541 90.02C495.868 90.2067 496.235 90.37 496.641 90.51C497.055 90.6433 497.475 90.7833 497.901 90.93C498.335 91.0767 498.755 91.2433 499.161 91.43C499.575 91.61 499.941 91.84 500.261 92.12C500.588 92.4 500.848 92.7433 501.041 93.15C501.241 93.5567 501.341 94.0567 501.341 94.65C501.341 95.2767 501.235 95.8667 501.021 96.42C500.808 96.9667 500.495 97.4433 500.081 97.85C499.675 98.2567 499.171 98.5767 498.571 98.81C497.978 99.0433 497.301 99.16 496.541 99.16C495.608 99.16 494.761 98.9933 494.001 98.66C493.241 98.32 492.591 97.8633 492.051 97.29L492.611 96.37C492.665 96.2967 492.728 96.2367 492.801 96.19C492.881 96.1367 492.968 96.11 493.061 96.11C493.148 96.11 493.245 96.1467 493.351 96.22C493.465 96.2867 493.591 96.3733 493.731 96.48C493.871 96.5867 494.031 96.7033 494.211 96.83C494.391 96.9567 494.595 97.0733 494.821 97.18C495.055 97.2867 495.318 97.3767 495.611 97.45C495.905 97.5167 496.235 97.55 496.601 97.55C497.061 97.55 497.471 97.4867 497.831 97.36C498.191 97.2333 498.495 97.0567 498.741 96.83C498.995 96.5967 499.188 96.32 499.321 96C499.455 95.68 499.521 95.3233 499.521 94.93C499.521 94.4967 499.421 94.1433 499.221 93.87C499.028 93.59 498.771 93.3567 498.451 93.17C498.131 92.9833 497.765 92.8267 497.351 92.7C496.938 92.5667 496.518 92.4333 496.091 92.3C495.665 92.16 495.245 92 494.831 91.82C494.418 91.64 494.051 91.4067 493.731 91.12C493.411 90.8333 493.151 90.4767 492.951 90.05C492.758 89.6167 492.661 89.0833 492.661 88.45C492.661 87.9433 492.758 87.4533 492.951 86.98C493.151 86.5067 493.438 86.0867 493.811 85.72C494.191 85.3533 494.655 85.06 495.201 84.84C495.755 84.62 496.388 84.51 497.101 84.51C497.901 84.51 498.628 84.6367 499.281 84.89C499.941 85.1433 500.521 85.51 501.021 85.99L500.551 86.91Z" fill="#F0EBEB"/>
<path d="M209.28 49.824C209.28 51.4453 209.365 52.768 209.536 53.792C209.707 54.7733 210.027 55.5413 210.496 56.096C211.008 56.608 211.712 56.9707 212.608 57.184C213.547 57.3973 214.763 57.5253 216.256 57.568V60H195.52V57.568C197.013 57.5253 198.208 57.3973 199.104 57.184C200.043 56.9707 200.768 56.608 201.28 56.096C201.792 55.584 202.133 54.8587 202.304 53.92C202.475 52.9813 202.56 51.7653 202.56 50.272V36.384H176.64V49.824C176.64 51.4453 176.725 52.768 176.896 53.792C177.067 54.7733 177.387 55.5413 177.856 56.096C178.368 56.608 179.072 56.9707 179.968 57.184C180.907 57.3973 182.123 57.5253 183.616 57.568V60H162.88V57.568C164.373 57.5253 165.568 57.3973 166.464 57.184C167.403 56.9707 168.128 56.608 168.64 56.096C169.152 55.584 169.493 54.8587 169.664 53.92C169.835 52.9813 169.92 51.7653 169.92 50.272V20.448C169.92 18.9547 169.835 17.76 169.664 16.864C169.536 15.9253 169.237 15.2 168.768 14.688C168.341 14.1333 167.701 13.7707 166.848 13.6C165.995 13.3867 164.885 13.2373 163.52 13.152V10.72H182.976V13.152C181.611 13.1947 180.501 13.3227 179.648 13.536C178.837 13.7493 178.197 14.1333 177.728 14.688C177.301 15.2427 177.003 16.0107 176.832 16.992C176.704 17.9733 176.64 19.2747 176.64 20.896V33.184H202.56V20.448C202.56 18.9547 202.475 17.76 202.304 16.864C202.176 15.9253 201.877 15.2 201.408 14.688C200.981 14.1333 200.341 13.7707 199.488 13.6C198.635 13.3867 197.525 13.2373 196.16 13.152V10.72H215.616V13.152C214.251 13.1947 213.141 13.3227 212.288 13.536C211.477 13.7493 210.837 14.1333 210.368 14.688C209.941 15.2427 209.643 16.0107 209.472 16.992C209.344 17.9733 209.28 19.2747 209.28 20.896V49.824ZM249.14 42.144H232.052C231.326 43.8933 230.708 45.4507 230.196 46.816C229.684 48.1387 229.257 49.2907 228.916 50.272C228.617 51.2533 228.404 52.0853 228.276 52.768C228.148 53.4507 228.084 54.0053 228.084 54.432C228.084 55.6267 228.468 56.4587 229.236 56.928C230.004 57.3547 231.284 57.568 233.076 57.568V60H217.524V57.568C218.505 57.44 219.337 57.2693 220.02 57.056C220.745 56.8427 221.364 56.544 221.876 56.16C222.43 55.776 222.9 55.2853 223.284 54.688C223.71 54.048 224.116 53.28 224.5 52.384L241.14 10.72H243.892L258.42 46.816C259.401 49.2053 260.254 51.1253 260.98 52.576C261.705 53.984 262.409 55.0507 263.092 55.776C263.774 56.5013 264.5 56.9707 265.268 57.184C266.078 57.3973 267.038 57.504 268.148 57.504V60H247.284V57.504C249.545 57.504 251.102 57.2907 251.956 56.864C252.809 56.4373 253.236 55.7333 253.236 54.752C253.236 54.3253 253.214 53.9413 253.172 53.6C253.129 53.216 253.044 52.8107 252.916 52.384C252.83 51.9573 252.681 51.488 252.468 50.976C252.297 50.4213 252.062 49.7813 251.764 49.056L249.14 42.144ZM233.332 38.944H247.924L240.82 20.064L233.332 38.944ZM308.177 23.072C308.177 26.4853 307.153 29.3227 305.105 31.584C303.057 33.8453 299.793 35.36 295.313 36.128L309.457 53.152C310.609 54.56 311.868 55.584 313.233 56.224C314.641 56.8213 316.305 57.2693 318.225 57.568V60H305.873L290.193 39.904C289.638 39.1787 289.105 38.6027 288.593 38.176C288.124 37.7493 287.612 37.4293 287.057 37.216C286.545 36.96 285.926 36.8107 285.201 36.768C284.518 36.6827 283.686 36.64 282.705 36.64V49.952C282.705 51.5307 282.79 52.832 282.961 53.856C283.174 54.8373 283.58 55.6053 284.177 56.16C284.817 56.7147 285.713 57.0987 286.865 57.312C288.06 57.4827 289.617 57.568 291.537 57.568V60H268.945V57.568C270.438 57.5253 271.633 57.3973 272.529 57.184C273.468 56.9707 274.193 56.608 274.705 56.096C275.217 55.584 275.558 54.8587 275.729 53.92C275.9 52.9813 275.985 51.7653 275.985 50.272V20.448C275.985 18.9547 275.9 17.76 275.729 16.864C275.601 15.9253 275.302 15.2 274.833 14.688C274.406 14.1333 273.766 13.7707 272.913 13.6C272.06 13.3867 270.95 13.2373 269.585 13.152V10.72H289.681C295.569 10.72 300.113 11.808 303.313 13.984C306.556 16.16 308.177 19.1893 308.177 23.072ZM282.705 33.44H287.249C291.516 33.44 294.673 32.672 296.721 31.136C298.812 29.5573 299.857 26.976 299.857 23.392C299.857 19.936 299.025 17.4613 297.361 15.968C295.74 14.4747 293.18 13.728 289.681 13.728H283.793C283.068 13.728 282.705 14.0907 282.705 14.816V33.44ZM363.964 22.944H361.34C361.212 21.1093 360.913 19.5733 360.444 18.336C359.975 17.0987 359.292 16.1387 358.396 15.456C357.543 14.7307 356.455 14.2187 355.132 13.92C353.809 13.6213 352.231 13.472 350.396 13.472C348.817 13.472 347.537 13.5147 346.556 13.6C345.617 13.6427 344.892 13.7493 344.38 13.92C343.868 14.0907 343.527 14.304 343.356 14.56C343.228 14.7733 343.164 15.072 343.164 15.456V49.696C343.164 51.0613 343.249 52.2347 343.42 53.216C343.633 54.1973 344.017 55.008 344.572 55.648C345.169 56.2453 346.001 56.7147 347.068 57.056C348.177 57.3547 349.628 57.5253 351.42 57.568V60H327.228V57.568C329.02 57.5253 330.471 57.3547 331.58 57.056C332.689 56.7147 333.521 56.2453 334.076 55.648C334.673 55.008 335.057 54.1973 335.228 53.216C335.441 52.2347 335.548 51.0613 335.548 49.696V15.456C335.548 15.072 335.463 14.7733 335.292 14.56C335.164 14.304 334.865 14.0907 334.396 13.92C333.969 13.7493 333.351 13.6427 332.54 13.6C331.729 13.5147 330.641 13.472 329.276 13.472C327.612 13.472 326.055 13.536 324.604 13.664C323.196 13.792 321.959 14.176 320.892 14.816C319.868 15.4133 319.036 16.352 318.396 17.632C317.756 18.912 317.415 20.6827 317.372 22.944H315.004V10.72H363.324L363.964 22.944ZM432.736 60H391.392V57.568C392.886 57.5253 394.08 57.3973 394.976 57.184C395.915 56.9707 396.64 56.608 397.152 56.096C397.664 55.584 398.006 54.8587 398.176 53.92C398.347 52.9813 398.432 51.7653 398.432 50.272V20.448C398.432 18.9547 398.347 17.76 398.176 16.864C398.048 15.9253 397.75 15.2 397.28 14.688C396.854 14.1333 396.214 13.7707 395.36 13.6C394.507 13.3867 393.398 13.2373 392.032 13.152V10.72H411.488V13.152C410.123 13.1947 409.014 13.3227 408.16 13.536C407.35 13.7493 406.71 14.1333 406.24 14.688C405.814 15.2427 405.515 16.0107 405.344 16.992C405.216 17.9733 405.152 19.2747 405.152 20.896V48.48C405.152 50.272 405.323 51.744 405.664 52.896C406.048 54.0053 406.667 54.88 407.52 55.52C408.416 56.1173 409.59 56.544 411.04 56.8C412.491 57.0133 414.326 57.12 416.544 57.12C418.976 57.12 421.024 56.992 422.688 56.736C424.352 56.4373 425.739 55.9467 426.848 55.264C428 54.5387 428.896 53.5573 429.536 52.32C430.219 51.04 430.795 49.3973 431.264 47.392H433.696L432.736 60ZM450.373 32.928C452.677 32.928 454.597 32.8 456.133 32.544C457.711 32.2453 458.949 31.7973 459.845 31.2C460.783 30.6027 461.445 29.8347 461.829 28.896C462.255 27.9573 462.469 26.848 462.469 25.568H464.709V43.04H462.469C462.469 41.76 462.277 40.6507 461.893 39.712C461.551 38.7733 460.911 38.0053 459.973 37.408C459.077 36.768 457.839 36.2987 456.261 36C454.725 35.6587 452.762 35.488 450.373 35.488V49.952C450.373 51.36 450.543 52.5333 450.885 53.472C451.226 54.368 451.802 55.1147 452.613 55.712C453.466 56.2667 454.575 56.672 455.941 56.928C457.306 57.1413 458.991 57.248 460.997 57.248C463.258 57.248 465.178 57.0987 466.757 56.8C468.335 56.4587 469.658 55.904 470.725 55.136C471.791 54.368 472.645 53.3653 473.285 52.128C473.925 50.848 474.458 49.2693 474.885 47.392H477.317L476.357 60H436.613V57.568C438.106 57.5253 439.301 57.3973 440.197 57.184C441.135 56.9707 441.861 56.608 442.373 56.096C442.885 55.584 443.226 54.8587 443.397 53.92C443.567 52.9813 443.653 51.7653 443.653 50.272V20.448C443.653 18.9547 443.567 17.76 443.397 16.864C443.269 15.9253 442.97 15.2 442.501 14.688C442.074 14.1333 441.434 13.7707 440.581 13.6C439.727 13.3867 438.618 13.2373 437.253 13.152V10.72H474.245L474.821 21.984H472.581C472.325 20.2773 471.898 18.8907 471.301 17.824C470.746 16.7147 469.957 15.84 468.933 15.2C467.951 14.56 466.693 14.112 465.157 13.856C463.621 13.6 461.765 13.472 459.589 13.472H451.461C450.735 13.472 450.373 13.8347 450.373 14.56V32.928ZM506.282 60.64C502.655 60.64 499.391 60.064 496.49 58.912C493.589 57.76 491.114 56.1387 489.066 54.048C487.018 51.9147 485.439 49.3333 484.33 46.304C483.263 43.2747 482.73 39.904 482.73 36.192C482.73 32.3093 483.327 28.768 484.522 25.568C485.717 22.368 487.381 19.616 489.514 17.312C491.69 15.008 494.271 13.2373 497.258 12C500.287 10.72 503.615 10.08 507.242 10.08C509.802 10.08 512.213 10.4427 514.474 11.168C516.735 11.8933 519.189 13.0667 521.834 14.688L523.178 10.72H525.418L524.586 25.44H521.514C521.514 23.3493 521.109 21.5573 520.298 20.064C519.53 18.528 518.506 17.2693 517.226 16.288C515.946 15.3067 514.474 14.5813 512.81 14.112C511.189 13.6427 509.525 13.408 507.818 13.408C505.215 13.408 502.89 13.92 500.842 14.944C498.794 15.968 497.066 17.44 495.658 19.36C494.25 21.28 493.162 23.6267 492.394 26.4C491.669 29.1733 491.306 32.3093 491.306 35.808C491.306 42.6773 492.735 47.968 495.594 51.68C498.453 55.3493 502.591 57.184 508.01 57.184C510.058 57.184 511.893 56.9493 513.514 56.48C515.135 55.968 516.501 55.3067 517.61 54.496C518.762 53.6427 519.615 52.6827 520.17 51.616C520.767 50.5067 521.066 49.3547 521.066 48.16C521.066 45.6853 520.554 44.0213 519.53 43.168C518.549 42.272 516.927 41.824 514.666 41.824V39.392H532.842V41.824C531.818 41.824 530.965 41.9093 530.282 42.08C529.599 42.2507 529.045 42.5707 528.618 43.04C528.234 43.4667 527.957 44.0427 527.786 44.768C527.658 45.4933 527.594 46.4107 527.594 47.52V54.688C526.783 54.688 526.037 54.7307 525.354 54.816C524.714 54.8587 524.031 55.008 523.306 55.264C522.581 55.4773 521.77 55.7973 520.874 56.224C520.021 56.608 518.997 57.1413 517.802 57.824C516.309 58.6773 514.581 59.36 512.618 59.872C510.698 60.384 508.586 60.64 506.282 60.64ZM563.717 42.144H546.629C545.904 43.8933 545.285 45.4507 544.773 46.816C544.261 48.1387 543.834 49.2907 543.493 50.272C543.194 51.2533 542.981 52.0853 542.853 52.768C542.725 53.4507 542.661 54.0053 542.661 54.432C542.661 55.6267 543.045 56.4587 543.813 56.928C544.581 57.3547 545.861 57.568 547.653 57.568V60H532.101V57.568C533.082 57.44 533.914 57.2693 534.597 57.056C535.322 56.8427 535.941 56.544 536.453 56.16C537.008 55.776 537.477 55.2853 537.861 54.688C538.288 54.048 538.693 53.28 539.077 52.384L555.717 10.72H558.469L572.997 46.816C573.978 49.2053 574.832 51.1253 575.557 52.576C576.282 53.984 576.986 55.0507 577.669 55.776C578.352 56.5013 579.077 56.9707 579.845 57.184C580.656 57.3973 581.616 57.504 582.725 57.504V60H561.861V57.504C564.122 57.504 565.68 57.2907 566.533 56.864C567.386 56.4373 567.813 55.7333 567.813 54.752C567.813 54.3253 567.792 53.9413 567.749 53.6C567.706 53.216 567.621 52.8107 567.493 52.384C567.408 51.9573 567.258 51.488 567.045 50.976C566.874 50.4213 566.64 49.7813 566.341 49.056L563.717 42.144ZM547.909 38.944H562.501L555.397 20.064L547.909 38.944ZM624.866 60H583.522V57.568C585.016 57.5253 586.21 57.3973 587.106 57.184C588.045 56.9707 588.77 56.608 589.282 56.096C589.794 55.584 590.136 54.8587 590.306 53.92C590.477 52.9813 590.562 51.7653 590.562 50.272V20.448C590.562 18.9547 590.477 17.76 590.306 16.864C590.178 15.9253 589.88 15.2 589.41 14.688C588.984 14.1333 588.344 13.7707 587.49 13.6C586.637 13.3867 585.528 13.2373 584.162 13.152V10.72H603.618V13.152C602.253 13.1947 601.144 13.3227 600.29 13.536C599.48 13.7493 598.84 14.1333 598.37 14.688C597.944 15.2427 597.645 16.0107 597.474 16.992C597.346 17.9733 597.282 19.2747 597.282 20.896V48.48C597.282 50.272 597.453 51.744 597.794 52.896C598.178 54.0053 598.797 54.88 599.65 55.52C600.546 56.1173 601.72 56.544 603.17 56.8C604.621 57.0133 606.456 57.12 608.674 57.12C611.106 57.12 613.154 56.992 614.818 56.736C616.482 56.4373 617.869 55.9467 618.978 55.264C620.13 54.5387 621.026 53.5573 621.666 52.32C622.349 51.04 622.925 49.3973 623.394 47.392H625.826L624.866 60Z" fill="#F0EBEB"/>
<path d="M1.53991 22.5848C1.02644 22.7642 0.593011 23.1218 0.317096 23.5936C0.0411813 24.0655 -0.0592281 24.6208 0.0338183 25.1604C0.292785 26.2628 1.47858 26.6749 1.53991 26.6955H4.14661C4.37557 26.6955 4.59519 26.7869 4.75741 26.9498C4.91962 27.1126 5.0112 27.3336 5.01211 27.5644V40.4356C5.0112 40.6664 4.91962 40.8874 4.75741 41.0502C4.59519 41.2131 4.37557 41.3045 4.14661 41.3045H2.29296C1.97741 41.2739 1.66116 41.3551 1.39861 41.5342C1.13607 41.7132 0.943663 41.9789 0.8545 42.2855C0.765337 42.5921 0.784997 42.9204 0.910096 43.2139C1.0352 43.5075 1.25791 43.7479 1.53991 43.8939L16.4884 49.5259C16.8315 49.5818 17.1833 49.5412 17.5049 49.4085C17.8266 49.2758 18.1057 49.0562 18.3114 48.7738C18.8089 47.9805 18.492 46.6721 17.3743 46.0265L11.8066 42.6782V38.698C11.8065 38.5612 11.8335 38.4258 11.886 38.2997C11.9384 38.1736 12.0152 38.0592 12.112 37.9633C12.2087 37.8674 12.3234 37.7919 12.4494 37.7411C12.5754 37.6904 12.7102 37.6654 12.8458 37.6677H50.8491C51.0767 37.6672 51.3022 37.712 51.5126 37.7995C51.723 37.887 51.9142 38.0154 52.0753 38.1775C52.2364 38.3395 52.3642 38.532 52.4514 38.7439C52.5386 38.9557 52.5835 39.1829 52.5835 39.4123V89.4756C52.582 89.555 52.5595 89.6324 52.5184 89.7001C52.4773 89.7678 52.419 89.8232 52.3496 89.8606C52.2802 89.898 52.2021 89.9161 52.1235 89.913C52.0448 89.91 51.9684 89.8858 51.902 89.8431L40.4598 81.9754C40.001 81.6565 39.4529 81.4941 38.8958 81.5118L35.335 81.6148C35.2577 81.6185 35.1829 81.6435 35.1187 81.6871C35.0546 81.7308 35.0035 81.7913 34.9712 81.8622C34.9388 81.9331 34.9264 82.0115 34.9353 82.089C34.9442 82.1665 34.974 82.2401 35.0215 82.3016L57.906 109.947C58.1796 110.277 58.522 110.543 58.9088 110.726C59.2956 110.909 59.7175 111.004 60.1447 111.004H62.4958C62.8727 111.004 63.2341 110.854 63.5005 110.585C63.767 110.316 63.9167 109.952 63.9167 109.572V12.2274C63.9165 11.8166 63.805 11.4136 63.5942 11.062C63.3834 10.7104 63.0814 10.4234 62.7207 10.2321L43.5368 0.0841238C43.4723 0.0497273 43.4 0.0327483 43.3271 0.0348404C43.2542 0.0369324 43.183 0.058024 43.1206 0.0960615C43.0581 0.134099 43.0065 0.187786 42.9708 0.251894C42.935 0.316002 42.9164 0.388347 42.9166 0.461883V3.76212C42.9216 3.92877 42.9829 4.0887 43.0904 4.21543L51.7794 15.2048C52.2093 15.7509 52.4435 16.4274 52.4438 17.1245V30.7272C52.4443 30.9566 52.3998 31.1839 52.313 31.3959C52.2263 31.608 52.0988 31.8007 51.938 31.9631C51.7773 32.1254 51.5863 32.2542 51.3761 32.3421C51.1658 32.43 50.9404 32.4752 50.7128 32.4752H12.8458C12.7102 32.4775 12.5754 32.4525 12.4494 32.4018C12.3234 32.351 12.2087 32.2755 12.112 32.1796C12.0152 32.0837 11.9384 31.9694 11.886 31.8432C11.8335 31.7171 11.8065 31.5817 11.8066 31.445V25.6824C11.8083 25.0576 12.0445 24.4564 12.4676 23.9997C13.9703 22.3788 15.1936 21.1253 16.0352 20.253C16.8769 19.3807 17.8684 18.402 17.6026 17.8491C17.4391 17.5057 16.8769 17.4233 16.4271 17.4095L1.53991 22.5848Z" fill="#F0EBEB"/>
<path d="M69.0925 10.0368C68.551 10.3023 68.0943 10.7157 67.7744 11.23C67.4545 11.7442 67.2843 12.3386 67.2831 12.9455L67.2559 109.398C67.2559 109.827 67.4249 110.238 67.7259 110.541C68.0269 110.845 68.4351 111.015 68.8608 111.015H72.735C73.1126 111.015 73.486 110.936 73.832 110.784C74.1779 110.631 74.4889 110.408 74.7454 110.129L127.098 52.8506C127.34 52.5865 127.487 52.2486 127.518 51.8904C127.548 51.5322 127.459 51.1741 127.264 50.8725L120.303 40.0824C120.15 39.8452 119.938 39.6527 119.688 39.5239C119.438 39.3952 119.159 39.3347 118.879 39.3486C118.598 39.3625 118.327 39.4503 118.09 39.6031C117.854 39.756 117.662 39.9686 117.533 40.2197C117.367 40.5429 117.314 40.9133 117.383 41.2706L119.329 51.4735C119.374 51.7164 119.364 51.9666 119.298 52.2048C119.233 52.443 119.114 52.6628 118.95 52.8472L80.9743 95.8945C80.758 96.1397 80.4729 96.3127 80.1568 96.3908C79.8407 96.4689 79.5085 96.4482 79.2043 96.3316C78.9001 96.215 78.6383 96.008 78.4535 95.738C78.2688 95.4679 78.1699 95.1476 78.1699 94.8196C78.1699 68.9489 78.1824 43.085 78.2074 17.2279C81.8557 12.878 85.5039 8.52117 89.1521 4.15748C89.3741 3.89318 89.5161 3.57013 89.561 3.22682C89.6871 2.27212 89.8098 1.32086 89.9359 0.36959C89.9403 0.311061 89.9298 0.252362 89.9053 0.199097C89.8808 0.145832 89.8432 0.099779 89.796 0.0653353C89.7489 0.0308915 89.6937 0.0092065 89.6359 0.00235051C89.5781 -0.00450547 89.5194 0.00369644 89.4656 0.0261732L69.0925 10.0368Z" fill="#F0EBEB"/>
</svg>
