<svg width="120" height="108" viewBox="0 0 120 108" fill="none" xmlns="http://www.w3.org/2000/svg">
<path d="M109.5 87.5C115.023 87.5 119.5 91.9772 119.5 97.5C119.5 103.023 115.023 107.5 109.5 107.5H10.5C4.97715 107.5 0.5 103.023 0.5 97.5C0.5 91.9772 4.97715 87.5 10.5 87.5H109.5ZM109.5 43.5C115.023 43.5 119.5 47.9772 119.5 53.5C119.5 59.0228 115.023 63.5 109.5 63.5H10.5C4.97715 63.5 0.5 59.0228 0.5 53.5C0.5 47.9772 4.97715 43.5 10.5 43.5H109.5ZM109.5 0.5C115.023 0.5 119.5 4.97715 119.5 10.5C119.5 16.0228 115.023 20.5 109.5 20.5H10.5C4.97715 20.5 0.5 16.0228 0.5 10.5C0.5 4.97715 4.97715 0.5 10.5 0.5H109.5Z" fill="#F0EBEB"/>
</svg>
